<svg width="32" height="32" viewBox="0 0 32 32" fill="none" xmlns="http://www.w3.org/2000/svg">
<rect width="32" height="32" rx="16" fill="#5F67EC"/>
<path fill-rule="evenodd" clip-rule="evenodd" d="M10.7215 10.7212C11.138 10.3047 11.8135 10.3047 12.23 10.7212L16.0015 14.4925L19.773 10.7212C20.1896 10.3047 20.865 10.3047 21.2816 10.7212C21.6981 11.1378 21.6981 11.8132 21.2816 12.2297L17.5101 16.001L21.2816 19.7722C21.6981 20.1888 21.6981 20.8641 21.2816 21.2807C20.865 21.6973 20.1896 21.6973 19.773 21.2807L16.0015 17.5095L12.23 21.2807C11.8135 21.6973 11.138 21.6973 10.7215 21.2807C10.3049 20.8641 10.3049 20.1888 10.7215 19.7722L14.4929 16.001L10.7215 12.2297C10.3049 11.8132 10.3049 11.1378 10.7215 10.7212Z" fill="white"/>
</svg>
